<svg width="80" height="80" viewBox="0 0 80 80" xmlns="http://www.w3.org/2000/svg">
  <defs>
    <linearGradient id="g1" x1="30%" y1="0%" x2="70%" y2="100%"><stop offset="0%" stop-color="#ffb347"></stop><stop offset="50%" stop-color="#ff8c00"></stop><stop offset="100%" stop-color="#e05a00"></stop></linearGradient>
  </defs>
  <path d="M40 18 C28 18 16 28 16 44 C16 58 26 68 36 68 C38 68 39 67 40 66 C41 67 42 68 44 68 C54 68 64 58 64 44 C64 28 52 18 40 18 Z" fill="url(#g1)"></path>
  <path d="M40 18 C40 18 38 30 38 44 C38 56 39 64 40 66" stroke="#c85000" stroke-width="1.5" fill="none" opacity="0.5"></path>
  <ellipse cx="30" cy="32" rx="6" ry="4" fill="rgba(255,240,200,0.35)" transform="rotate(-20, 30, 32)"></ellipse>
  <path d="M40 18 C40 12 46 8 50 10 C46 12 44 16 40 18 Z" fill="#4a8a20"></path>
  <path d="M40 18 C40 12 34 7 30 9 C34 12 37 15 40 18 Z" fill="#3a7010"></path>
  <path d="M40 18 L40 13" stroke="#6a4a10" stroke-width="2" stroke-linecap="round"></path>
  <path d="M60 34 C64 34 68 38 66 44 C64 40 60 38 56 40 C54 36 56 34 60 34 Z" fill="#16191f"></path>
</svg>