<svg width="80" height="80" viewBox="0 0 80 80" xmlns="http://www.w3.org/2000/svg">
  <defs>
    <linearGradient id="g1" x1="0%" y1="0%" x2="0%" y2="100%"><stop offset="0%" stop-color="#4a90c8"></stop><stop offset="100%" stop-color="#1a5a90"></stop></linearGradient>
  </defs>
  <ellipse cx="40" cy="50" rx="20" ry="15" fill="url(#g1)"></ellipse>
  <circle cx="60" cy="38" r="12" fill="url(#g1)"></circle>
  <ellipse cx="68" cy="42" rx="6" ry="5" fill="#1a5a90"></ellipse>
  <ellipse cx="67" cy="41" rx="2" ry="2" fill="#0a3060" opacity="0.8"></ellipse>
  <ellipse cx="70" cy="43" rx="2" ry="2" fill="#0a3060" opacity="0.8"></ellipse>
  <circle cx="62" cy="34" r="2" fill="#0a3060"></circle>
  <circle cx="62" cy="34" r="1" fill="white" opacity="0.6"></circle>
  <path d="M55 28 C50 20 44 18 42 22" fill="none" stroke="#88b8e0" stroke-width="3" stroke-linecap="round"></path>
  <path d="M65 27 C66 20 70 16 72 19" fill="none" stroke="#88b8e0" stroke-width="3" stroke-linecap="round"></path>
  <rect x="24" y="60" width="6" height="14" rx="3" fill="#1a5a90"></rect>
  <rect x="34" y="62" width="6" height="12" rx="3" fill="#1a5a90"></rect>
  <rect x="44" y="62" width="6" height="12" rx="3" fill="#1a5a90"></rect>
  <rect x="54" y="60" width="6" height="14" rx="3" fill="#1a5a90"></rect>
  <path d="M20 50 C12 44 10 38 14 34" fill="none" stroke="#88b8e0" stroke-width="3" stroke-linecap="round"></path>
</svg>