<svg width="80" height="80" viewBox="0 0 80 80" xmlns="http://www.w3.org/2000/svg">
  <defs>
    <linearGradient id="g1" x1="0%" y1="0%" x2="100%" y2="0%"><stop offset="0%" stop-color="#2a1a08"></stop><stop offset="30%" stop-color="#5a3a18"></stop><stop offset="50%" stop-color="#6e4820"></stop><stop offset="70%" stop-color="#5a3a18"></stop><stop offset="100%" stop-color="#2a1a08"></stop></linearGradient>
    <linearGradient id="g2" x1="0%" y1="0%" x2="0%" y2="100%"><stop offset="0%" stop-color="#7a5228"></stop><stop offset="100%" stop-color="#4a2e10"></stop></linearGradient>
  </defs>
  <rect x="22" y="20" width="36" height="46" rx="4" fill="url(#g1)"></rect>
  <ellipse cx="40" cy="43" rx="22" ry="4" fill="none" stroke="#7a5228" stroke-width="1"></ellipse>
  <ellipse cx="40" cy="20" rx="18" ry="5" fill="url(#g2)"></ellipse>
  <ellipse cx="40" cy="20" rx="14" ry="3" fill="#3a2010"></ellipse>
  <ellipse cx="40" cy="66" rx="18" ry="5" fill="#4a2e10"></ellipse>
  <rect x="22" y="27" width="36" height="4" rx="2" fill="#8B4513" opacity="0.6"></rect>
  <rect x="22" y="55" width="36" height="4" rx="2" fill="#8B4513" opacity="0.6"></rect>
  <rect x="26" y="21" width="8" height="44" rx="3" fill="rgba(255,200,100,0.1)"></rect>
  <text x="40" y="46" text-anchor="middle" font-size="8" font-family="Georgia,serif" fill="#c88a40" letter-spacing="1">WTI</text>
  <circle cx="40" cy="16" r="3" fill="#0a0a0a"></circle>
  <path d="M40 12 Q42 8 40 5 Q38 8 40 12" fill="#1a1a1a"></path>
</svg>