<svg width="80" height="80" viewBox="0 0 80 80" xmlns="http://www.w3.org/2000/svg">
  <defs>
    <linearGradient id="g1" x1="0%" y1="0%" x2="100%" y2="100%"><stop offset="0%" stop-color="#d8dde8"></stop><stop offset="40%" stop-color="#a0a8b8"></stop><stop offset="100%" stop-color="#5a6070"></stop></linearGradient>
    <linearGradient id="g2" x1="0%" y1="0%" x2="0%" y2="100%"><stop offset="0%" stop-color="#eef0f5"></stop><stop offset="100%" stop-color="#8890a0"></stop></linearGradient>
    <linearGradient id="g3" x1="0%" y1="0%" x2="100%" y2="100%"><stop offset="0%" stop-color="#ffffff"></stop><stop offset="100%" stop-color="#b0b8c8"></stop></linearGradient>
  </defs>
  <ellipse cx="40" cy="68" rx="26" ry="5" fill="#080808" opacity="0.4"></ellipse>
  <path d="M14 52 L66 52 L66 62 L14 62 Z" fill="url(#g1)"></path>
  <path d="M10 38 L70 38 L66 62 L14 62 Z" fill="url(#g2)"></path>
  <path d="M10 28 L10 38 L14 62 L14 52 Z" fill="#5a6272"></path>
  <path d="M70 28 L70 38 L66 62 L66 52 Z" fill="#4e5565"></path>
  <path d="M18 20 L62 20 L70 28 L10 28 Z" fill="url(#g3)"></path>
  <path d="M20 22 L58 22 L64 27 L14 27 Z" fill="rgba(255,255,255,0.4)"></path>
  <text x="40" y="53" text-anchor="middle" font-size="9" font-family="Georgia,serif" fill="#6a7282" letter-spacing="1">999.0</text>
  <text x="40" y="63" text-anchor="middle" font-size="6" font-family="Georgia,serif" fill="#5a6070" letter-spacing="0.5">FINE SILVER</text>
  <path d="M16 42 L64 42" stroke="rgba(255,255,255,0.4)" stroke-width="1.5" stroke-linecap="round"></path>
</svg>