<svg xmlns="http://www.w3.org/2000/svg" viewBox="0 0 96 118" width="66" height="82">
  
  <rect x="0" y="106" width="96" height="10" fill="#0d2040" rx="1"></rect>
  <rect x="0" y="106" width="96" height="2" fill="rgba(30,80,150,0.5)"></rect>
  <ellipse cx="48" cy="110" rx="34" ry="2.5" fill="rgba(20,60,120,0.35)"></ellipse>
  <ellipse cx="48" cy="108" rx="28" ry="2" fill="rgba(0,0,0,0.4)"></ellipse>
  
  <polygon points="6,100 90,100 86,106 10,106" fill="#222c3a"></polygon>
  <polygon points="6,96 90,96 90,100 6,100" fill="#2e3848"></polygon>
  <polygon points="90,96 94,92 94,104 90,100" fill="#181e28"></polygon>
  
  <polygon points="8,96 38,96 38,68 8,68" fill="#243040"></polygon>
  <polygon points="38,68 42,64 42,92 38,96" fill="#1a2230"></polygon>
  <polygon points="8,68 38,68 42,64 12,64" fill="#2e3c4e"></polygon>
  
  <rect x="12" y="72" width="8" height="7" fill="#1a2c40" rx="0.5"></rect>
  <rect x="24" y="72" width="8" height="7" fill="#1a2c40" rx="0.5"></rect>
  <rect x="12" y="84" width="8" height="7" fill="#1a2c40" rx="0.5"></rect>
  <rect x="24" y="84" width="8" height="7" fill="#1a2c40" rx="0.5"></rect>
  
  <rect x="8" y="60" width="12" height="8" fill="#cc3322" rx="0.5"></rect>
  <rect x="22" y="60" width="12" height="8" fill="#1a44cc" rx="0.5"></rect>
  <rect x="36" y="60" width="9" height="8" fill="#cc8822" rx="0.5"></rect>
  <rect x="8" y="52" width="12" height="8" fill="#1a44cc" rx="0.5"></rect>
  <rect x="22" y="52" width="12" height="8" fill="#22aa44" rx="0.5"></rect>
  <rect x="36" y="52" width="9" height="8" fill="#cc3322" rx="0.5"></rect>
  <rect x="8" y="44" width="12" height="8" fill="#22aa44" rx="0.5"></rect>
  <rect x="22" y="44" width="12" height="8" fill="#cc8822" rx="0.5"></rect>
  
  <polygon points="58,96 62,96 62,14 58,14" fill="#ddaa22"></polygon>
  <polygon points="62,14 66,11 66,94 62,96" fill="#bb8810"></polygon>
  <polygon points="58,14 62,14 66,11 62,11" fill="#ffcc44"></polygon>
  
  <polygon points="16,17 62,13 62,18 16,22" fill="#ddaa22"></polygon>
  <rect x="14" y="16" width="4" height="6" fill="#bb8810" rx="0.5"></rect>
  
  <polygon points="62,13 84,15 84,19 62,18" fill="#ddaa22"></polygon>
  <rect x="80" y="14" width="7" height="9" fill="#8a8822" rx="0.5"></rect>
  
  <rect x="28" y="14" width="9" height="5" fill="#ffaa22" rx="1"></rect>
  
  <line x1="32" y1="19" x2="32" y2="56" stroke="#5a6070" stroke-width="1"></line>
  
  <rect x="26" y="54" width="14" height="9" fill="#cc3322" rx="0.5"></rect>
  <line x1="26" y1="56" x2="40" y2="56" stroke="#888" stroke-width="0.6"></line>
  
  <rect x="50" y="90" width="7" height="6" fill="#aa8810"></rect>
  <rect x="65" y="90" width="7" height="6" fill="#aa8810"></rect>
  
  <circle cx="62" cy="11" r="2.5" fill="#ff4400" opacity="0.95"></circle>
  <circle cx="62" cy="11" r="6" fill="rgba(255,80,0,0.2)"></circle>
  
  <polygon points="46,103 80,103 78,106 48,106" fill="#2a3848"></polygon>
  <rect x="64" y="99" width="10" height="5" fill="#3a4858"></rect>
</svg>