<svg xmlns="http://www.w3.org/2000/svg" viewBox="0 0 110 88" width="80" height="64">
  <ellipse cx="55" cy="85" rx="38" ry="4" fill="rgba(0,0,0,0.5)"></ellipse>

  
  <polygon points="4,78  106,78  102,82  8,82" fill="#7a6032"></polygon>
  <polygon points="4,74  106,74  106,78  4,78" fill="#9a7840"></polygon>
  <polygon points="106,74 110,70 110,82 106,78" fill="#6a5228"></polygon>
  <polygon points="8,70   102,70  102,74  8,74" fill="#a88448"></polygon>
  <polygon points="102,70 106,66 106,74 102,74" fill="#7a6030"></polygon>
  <polygon points="12,66  98,66   98,70  12,70" fill="#b09050"></polygon>
  <polygon points="98,66  102,62 102,70  98,70" fill="#886838"></polygon>

  
  <polygon points="98,28 104,24 104,62 98,66" fill="#8a6838"></polygon>

  
  <rect x="12" y="28" width="86" height="38" fill="#cbb47c"></rect>

  
  <line x1="12" y1="36" x2="98" y2="36" stroke="rgba(100,70,20,0.15)" stroke-width="0.7"></line>
  <line x1="12" y1="44" x2="98" y2="44" stroke="rgba(100,70,20,0.12)" stroke-width="0.7"></line>
  <line x1="12" y1="52" x2="98" y2="52" stroke="rgba(100,70,20,0.10)" stroke-width="0.7"></line>
  <line x1="12" y1="60" x2="98" y2="60" stroke="rgba(100,70,20,0.12)" stroke-width="0.7"></line>

  
  
  
  <rect x="16" y="28" width="7" height="38" fill="rgba(0,0,0,0.10)"></rect>
  <rect x="17" y="28" width="2" height="38" fill="rgba(255,245,210,0.28)"></rect>
  <rect x="20" y="28" width="1" height="38" fill="rgba(255,245,210,0.12)"></rect>
  <rect x="15" y="26" width="9" height="3" fill="#d8c088" rx="0.5"></rect>
  
  <rect x="28" y="28" width="7" height="38" fill="rgba(0,0,0,0.08)"></rect>
  <rect x="29" y="28" width="2" height="38" fill="rgba(255,245,210,0.24)"></rect>
  <rect x="32" y="28" width="1" height="38" fill="rgba(255,245,210,0.10)"></rect>
  <rect x="27" y="26" width="9" height="3" fill="#d8c088" rx="0.5"></rect>
  
  <rect x="40" y="28" width="7" height="38" fill="rgba(0,0,0,0.06)"></rect>
  <rect x="41" y="28" width="2" height="38" fill="rgba(255,245,210,0.20)"></rect>
  <rect x="44" y="28" width="1" height="38" fill="rgba(255,245,210,0.09)"></rect>
  <rect x="39" y="26" width="9" height="3" fill="#d8c088" rx="0.5"></rect>
  
  <rect x="53" y="28" width="7" height="38" fill="rgba(0,0,0,0.06)"></rect>
  <rect x="54" y="28" width="2" height="38" fill="rgba(255,245,210,0.20)"></rect>
  <rect x="57" y="28" width="1" height="38" fill="rgba(255,245,210,0.09)"></rect>
  <rect x="52" y="26" width="9" height="3" fill="#d8c088" rx="0.5"></rect>
  
  <rect x="65" y="28" width="7" height="38" fill="rgba(0,0,0,0.08)"></rect>
  <rect x="66" y="28" width="2" height="38" fill="rgba(255,245,210,0.24)"></rect>
  <rect x="69" y="28" width="1" height="38" fill="rgba(255,245,210,0.10)"></rect>
  <rect x="64" y="26" width="9" height="3" fill="#d8c088" rx="0.5"></rect>
  
  <rect x="77" y="28" width="7" height="38" fill="rgba(0,0,0,0.10)"></rect>
  <rect x="78" y="28" width="2" height="38" fill="rgba(255,245,210,0.28)"></rect>
  <rect x="81" y="28" width="1" height="38" fill="rgba(255,245,210,0.12)"></rect>
  <rect x="76" y="26" width="9" height="3" fill="#d8c088" rx="0.5"></rect>

  
  <rect x="10" y="22" width="90" height="6" fill="#d8c080"></rect>
  <polygon points="98,22 104,18 104,24 98,28" fill="#a07a38"></polygon>
  
  <rect x="10" y="23" width="90" height="2" fill="rgba(255,245,210,0.20)"></rect>

  
  <rect x="46" y="46" width="18" height="20" fill="#18100a"></rect>
  <path d="M46,46 Q55,38 64,46" fill="#18100a"></path>
  
  <line x1="55" y1="38" x2="55" y2="66" stroke="rgba(255,200,100,0.15)" stroke-width="1"></line>
  <rect x="46" y="55" width="18" height="1" fill="rgba(255,200,100,0.12)"></rect>

  
  <polygon points="98,4  104,0  104,18 98,22" fill="#8a6838"></polygon>
  <polygon points="14,4  98,4   104,0  20,0" fill="#dcc888"></polygon>
  <rect x="14" y="4" width="84" height="18" fill="#c0a86e"></rect>
  
  <rect x="20" y="7" width="9" height="8" fill="#1e3868" rx="1"></rect>
  <rect x="34" y="7" width="9" height="8" fill="#1e3868" rx="1"></rect>
  <rect x="48" y="7" width="9" height="8" fill="#1e3868" rx="1"></rect>
  <rect x="62" y="7" width="9" height="8" fill="#1e3868" rx="1"></rect>
  <rect x="76" y="7" width="9" height="8" fill="#1e3868" rx="1"></rect>
  
  <rect x="20" y="7" width="4" height="4" fill="rgba(150,200,255,0.18)" rx="0.5"></rect>
  <rect x="34" y="7" width="4" height="4" fill="rgba(150,200,255,0.18)" rx="0.5"></rect>
  <rect x="48" y="7" width="4" height="4" fill="rgba(150,200,255,0.18)" rx="0.5"></rect>
  <rect x="62" y="7" width="4" height="4" fill="rgba(150,200,255,0.18)" rx="0.5"></rect>
  <rect x="76" y="7" width="4" height="4" fill="rgba(150,200,255,0.18)" rx="0.5"></rect>

  
  <polygon points="10,22 100,22 55,10" fill="#cbb47c"></polygon>
  <polygon points="100,22 104,18 59,6 55,10" fill="#a07838"></polygon>
  
  <ellipse cx="55" cy="18" rx="16" ry="4" fill="rgba(200,170,100,0.25)"></ellipse>
  <line x1="46" y1="20" x2="64" y2="20" stroke="rgba(180,140,60,0.3)" stroke-width="1"></line>

  
  <line x1="55" y1="10" x2="55" y2="2" stroke="#888" stroke-width="1"></line>
  
  <rect x="55" y="2" width="14" height="8" fill="#cc2222"></rect>
  <rect x="55" y="3.3" width="14" height="1.1" fill="#eee"></rect>
  <rect x="55" y="5.6" width="14" height="1.1" fill="#eee"></rect>
  <rect x="55" y="7.9" width="14" height="1.1" fill="#eee"></rect>
  
  <rect x="55" y="2" width="6" height="4" fill="#2244aa"></rect>
</svg>