<svg xmlns="http://www.w3.org/2000/svg" viewBox="0 0 110 72" width="84" height="55">
  
  <ellipse cx="55" cy="69" rx="48" ry="4" fill="rgba(0,0,0,0.45)"></ellipse>
  
  <rect x="0" y="56" width="110" height="12" fill="#0d2a48" rx="1"></rect>
  <line x1="0" y1="56" x2="110" y2="56" stroke="rgba(60,140,200,0.4)" stroke-width="1"></line>
  
  <path d="M4 62 Q2 58 6 57" fill="none" stroke="rgba(150,220,255,0.5)" stroke-width="1.2"></path>
  <path d="M106 62 Q108 58 104 57" fill="none" stroke="rgba(150,220,255,0.4)" stroke-width="1"></path>
  <path d="M8 65 Q5 60 2 61" fill="none" stroke="rgba(100,180,240,0.3)" stroke-width="1"></path>

  
  <polygon points="6,46 104,46 108,56 2,56" fill="#1e3050"></polygon>
  
  <polygon points="4,52 106,52 108,56 2,56" fill="#bb2222"></polygon>
  
  <polygon points="6,38 104,38 104,46 6,46" fill="#2e4060"></polygon>
  
  <polygon points="2,50 6,46 6,56" fill="#162440"></polygon>
  <polygon points="2,50 6,38 6,46" fill="#1e3050"></polygon>
  
  <polygon points="104,38 108,36 108,54 104,46" fill="#162440"></polygon>

  
  <rect x="8" y="32" width="8" height="6" fill="#cc3322" rx="0.5"></rect>
  <rect x="18" y="32" width="8" height="6" fill="#1a44cc" rx="0.5"></rect>
  <rect x="28" y="32" width="8" height="6" fill="#22aa44" rx="0.5"></rect>
  <rect x="38" y="32" width="8" height="6" fill="#cc8822" rx="0.5"></rect>
  <rect x="48" y="32" width="8" height="6" fill="#cc3322" rx="0.5"></rect>
  <rect x="58" y="32" width="8" height="6" fill="#1a44cc" rx="0.5"></rect>
  <rect x="68" y="32" width="8" height="6" fill="#22aa44" rx="0.5"></rect>
  
  <rect x="8" y="26" width="8" height="6" fill="#22aa44" rx="0.5"></rect>
  <rect x="18" y="26" width="8" height="6" fill="#cc8822" rx="0.5"></rect>
  <rect x="28" y="26" width="8" height="6" fill="#cc3322" rx="0.5"></rect>
  <rect x="38" y="26" width="8" height="6" fill="#1a44cc" rx="0.5"></rect>
  <rect x="48" y="26" width="8" height="6" fill="#cc8822" rx="0.5"></rect>
  <rect x="58" y="26" width="8" height="6" fill="#cc3322" rx="0.5"></rect>
  <rect x="68" y="26" width="8" height="6" fill="#1a44cc" rx="0.5"></rect>
  
  <rect x="8" y="20" width="8" height="6" fill="#1a44cc" rx="0.5"></rect>
  <rect x="18" y="20" width="8" height="6" fill="#22aa44" rx="0.5"></rect>
  <rect x="28" y="20" width="8" height="6" fill="#cc8822" rx="0.5"></rect>
  <rect x="38" y="20" width="8" height="6" fill="#cc3322" rx="0.5"></rect>
  <rect x="48" y="20" width="8" height="6" fill="#22aa44" rx="0.5"></rect>
  <rect x="58" y="20" width="8" height="6" fill="#cc8822" rx="0.5"></rect>

  
  <rect x="80" y="14" width="18" height="24" fill="#3a4a6a"></rect>
  <rect x="82" y="11" width="16" height="5" fill="#4a5a7a"></rect>
  <rect x="83" y="8" width="14" height="4" fill="#5a6a8a"></rect>
  
  <rect x="83" y="16" width="4" height="3" fill="#88ccee" rx="0.4"></rect>
  <rect x="90" y="16" width="4" height="3" fill="#88ccee" rx="0.4"></rect>
  <rect x="83" y="22" width="4" height="3" fill="#88ccee" rx="0.4"></rect>
  <rect x="90" y="22" width="4" height="3" fill="#88ccee" rx="0.4"></rect>
  
  <rect x="86" y="4" width="6" height="6" fill="#cc2222" rx="0.5"></rect>
  <ellipse cx="89" cy="4" rx="4" ry="2" fill="#442222"></ellipse>
  
  <line x1="89" y1="4" x2="89" y2="0" stroke="#888" stroke-width="1"></line>
  <line x1="85" y1="2" x2="93" y2="2" stroke="#888" stroke-width="0.8"></line>
  
  <circle cx="4" cy="44" r="1.5" fill="rgba(255,50,50,0.9)"></circle>
  <circle cx="106" cy="44" r="1.5" fill="rgba(50,255,50,0.9)"></circle>
</svg>