<svg xmlns="http://www.w3.org/2000/svg" viewBox="0 0 90 90" width="66" height="66">
  
  <ellipse cx="45" cy="86" rx="36" ry="5" fill="rgba(0,0,0,0.5)"></ellipse>
  
  <polygon points="4,80 86,80 82,86 8,86" fill="#7a5a20"></polygon>
  <polygon points="4,76 86,76 86,80 4,80" fill="#9a7230"></polygon>
  <polygon points="86,76 90,72 90,84 86,80" fill="#6a4c18"></polygon>
  
  
  <polygon points="8,74 22,74 15,56" fill="#c8922a"></polygon>
  
  <polygon points="22,74 32,74 15,56" fill="#e8b040"></polygon>
  
  <polygon points="14,57 16,57 15,54" fill="#f8d060"></polygon>
  
  
  <polygon points="34,74 50,74 42,52" fill="#c8922a"></polygon>
  
  <polygon points="50,74 62,74 42,52" fill="#e8b040"></polygon>
  <polygon points="41,53 43,53 42,50" fill="#f8d060"></polygon>
  
  
  <polygon points="12,76 48,76 30,36" fill="#c88e28"></polygon>
  
  <polygon points="48,76 78,76 30,36" fill="#eeaa3a"></polygon>
  
  <line x1="12" y1="76" x2="30" y2="36" stroke="rgba(0,0,0,0.12)" stroke-width="0.8"></line>
  <line x1="20" y1="76" x2="30" y2="36" stroke="rgba(0,0,0,0.10)" stroke-width="0.6"></line>
  <line x1="32" y1="76" x2="30" y2="36" stroke="rgba(0,0,0,0.08)" stroke-width="0.6"></line>
  
  <polygon points="21,68 39,68 30,36" fill="none"></polygon>
  <line x1="13" y1="70" x2="46" y2="70" stroke="rgba(160,100,20,0.35)" stroke-width="0.8"></line>
  <line x1="15" y1="64" x2="44" y2="64" stroke="rgba(160,100,20,0.3)" stroke-width="0.7"></line>
  <line x1="17" y1="58" x2="42" y2="58" stroke="rgba(160,100,20,0.25)" stroke-width="0.7"></line>
  <line x1="20" y1="52" x2="40" y2="52" stroke="rgba(160,100,20,0.2)" stroke-width="0.6"></line>
  <line x1="23" y1="46" x2="37" y2="46" stroke="rgba(160,100,20,0.15)" stroke-width="0.6"></line>
  
  <line x1="50" y1="70" x2="76" y2="70" stroke="rgba(0,0,0,0.18)" stroke-width="0.8"></line>
  <line x1="52" y1="64" x2="74" y2="64" stroke="rgba(0,0,0,0.15)" stroke-width="0.7"></line>
  <line x1="54" y1="58" x2="70" y2="58" stroke="rgba(0,0,0,0.12)" stroke-width="0.7"></line>
  <line x1="56" y1="52" x2="66" y2="52" stroke="rgba(0,0,0,0.10)" stroke-width="0.6"></line>
  
  <circle cx="30" cy="36" r="3" fill="rgba(255,220,100,0.7)"></circle>
  <circle cx="30" cy="36" r="7" fill="rgba(255,200,60,0.18)"></circle>
  
  <ellipse cx="68" cy="75" rx="10" ry="5" fill="#b87a20"></ellipse>
  <ellipse cx="75" cy="74" rx="4" ry="4" fill="#c88a28"></ellipse>
  <ellipse cx="75" cy="72" rx="3" ry="2" fill="#d49830"></ellipse>
</svg>